HIERARCHY
ROOT Hips
{
	OFFSET 0.00000 0.00000 0.00000
	CHANNELS 6 Xposition Yposition Zposition Yrotation Zrotation Xrotation 
	JOINT Lumbar
	{
		OFFSET 0 0 0
		CHANNELS 3 Zrotation Xrotation Yrotation
		JOINT Neck
		{
			OFFSET 0.00 0.2701 0.00
			CHANNELS 3 Zrotation Xrotation Yrotation
			End Site
			{
				OFFSET 0.00 0.1379 0.00
			}
		}
		JOINT RightShoulder
		{
			OFFSET 0.0119 0.2289 0.1181
			CHANNELS 3 Zrotation Xrotation Yrotation
			JOINT RightElbow
			{
				OFFSET 0.00 -0.1475 0.00
				CHANNELS 2 Zrotation Yrotation
				JOINT RightWrist
				{
					OFFSET 0.00 -0.1605 0.00
					CHANNELS 2 Zrotation Xrotation
					End Site
					{
						OFFSET 0.0040 -0.1068 0.0006
					}
				}
			}
		}
		JOINT LeftShoulder
		{
			OFFSET 0.0119 0.2289 -0.1181
			CHANNELS 3 Zrotation Xrotation Yrotation
			JOINT LeftElbow
			{
				OFFSET 0.00 -0.1475 0.00
				CHANNELS 2 Zrotation Yrotation
				JOINT LeftWrist
				{
					OFFSET 0.00 -0.1605 0.00
					CHANNELS 2 Zrotation Xrotation
					End Site
					{
						OFFSET 0.0040 -0.1068 -0.0006
					}
				}
			}
		}
	}
	JOINT RightHip
	{
		OFFSET 0.0316 -0.0424 0.0458
		CHANNELS 3 Zrotation Xrotation Yrotation
		JOINT RightKnee
		{
			OFFSET 0.00 -0.2438 0.00
			CHANNELS 1 Zrotation
			JOINT RightAnkle
			{
				OFFSET 0.00 -0.2449 0.00
				CHANNELS 3 Zrotation Xrotation Yrotation
				End Site
				{
					OFFSET 0.1237 -0.0542 0.0051
				}
			}
		}
	}
	JOINT LeftHip
	{
		OFFSET 0.0316 -0.0424 -0.0458
		CHANNELS 3 Zrotation Xrotation Yrotation
		JOINT LeftKnee
		{
			OFFSET 0.00 -0.2438 0.00
			CHANNELS 1 Zrotation
			JOINT LeftAnkle
			{
				OFFSET 0.00 -0.2449 0.00
				CHANNELS 3 Zrotation Xrotation Yrotation
				End Site
				{
					OFFSET 0.1237 -0.0542 -0.0051
				}
			}
		}
	}
}
MOTION
Frames: 32
Frame Time: 0.02
-0 0.57926 -0 188.35839 0 -3.74123 5.64315 5.61134 -2.01041 -2.13656 -1.56217 -1.59979 -1.06063 -8.71589 -6.17329 6.65436 78.91979 -1.20537 -0.45461 -4.30685 10.88281 23.80336 5.78579 -75.85861 -4.43384 -1.36377 -6.2456 8.65287 4.44208 -2.74681 1.8025 -2.84282 -3.46762 -6.10213 -0.52521 -4.98416 -5.21988 7.98839 4.78168 6.1257
0.00055 0.57929 5e-05 188.57712 0 -3.72737 5.82551 5.56688 -2.0451 -2.7221 -1.50502 -1.689 0.2835 -8.74481 -5.36187 6.73625 79.26912 -1.21246 -0.49535 -2.34167 10.98286 20.05046 6.07092 -76.25666 -4.42406 -0.88789 -6.21709 8.64878 4.28797 -2.72418 1.78634 -2.81414 -3.51785 -6.00229 -0.53455 -5.23444 -5.28086 7.95636 4.7603 6.15417
0.00111 0.57932 0.00011 188.79492 0 -3.71363 6.00745 5.52249 -2.07998 -3.30661 -1.44686 -1.77727 1.62408 -8.77474 -4.54832 6.81896 79.61607 -1.21964 -0.53686 -0.38171 11.08057 16.3178 6.3573 -76.65222 -4.41482 -0.41352 -6.18844 8.64473 4.1347 -2.70203 1.77025 -2.78575 -3.5681 -5.90289 -0.5438 -5.48342 -5.34141 7.92432 4.739 6.1822
0.00166 0.57934 0.00016 189.01082 0 -3.70024 6.18921 5.4781 -2.11592 -3.891 -1.38441 -1.86248 2.961 -8.80899 -3.72138 6.90486 79.95666 -1.22722 -0.5819 1.57301 11.17068 12.6311 6.65046 -77.04131 -4.40721 0.0588 -6.1593 8.64088 3.98288 -2.68119 1.75443 -2.75804 -3.6183 -5.80463 -0.55276 -5.72896 -5.40056 7.8921 4.71775 6.20843
0.00222 0.57937 0.00022 189.23644 0 -3.68501 6.37162 5.4339 -2.14621 -4.47398 -1.34508 -1.96371 4.31427 -8.82036 -2.96903 6.9728 80.33068 -1.23263 -0.60831 3.55128 11.30198 8.70282 6.9065 -77.46418 -4.39044 0.54118 -6.13319 8.63606 3.82282 -2.65296 1.73734 -2.72648 -3.66794 -5.70078 -0.56321 -5.99189 -5.46681 7.86104 4.69615 6.24378
0.00276 0.5794 0.00027 189.4415 0 -3.67368 6.55267 5.38924 -2.18845 -5.06075 -1.25662 -2.03106 5.63367 -8.88009 -2.05718 7.07938 80.63381 -1.24265 -0.67404 5.48057 11.34541 5.28816 7.2416 -77.81553 -4.39342 1.00235 -6.1004 8.63325 3.68077 -2.64067 1.72284 -2.70326 -3.71929 -5.60853 -0.57056 -6.21837 -5.51821 7.82741 4.67535 6.26012
0.00322 0.57944 0.00036 189.59135 0 -3.67337 6.73299 5.34276 -2.266 -5.66303 -1.02717 -2.00237 6.87501 -9.08002 -0.68466 7.29329 80.74049 -1.26608 -0.85461 7.29923 11.14374 3.25996 7.80547 -77.96908 -4.44985 1.41071 -6.05011 8.63647 3.58417 -2.67156 1.71613 -2.70234 -3.77346 -5.54967 -0.5686 -6.34161 -5.52643 7.78682 4.65599 6.21975
0.00366 0.57949 0.00045 189.72025 0 -3.67697 6.91153 5.29588 -2.35531 -6.2688 -0.74886 -1.93989 8.08024 -9.32771 0.84619 7.54621 80.77571 -1.29407 -1.07394 9.06524 10.85365 1.75431 8.44758 -78.05076 -4.52637 1.79688 -5.99287 8.64166 3.50738 -2.71873 1.7118 -2.71037 -3.83066 -5.50224 -0.56364 -6.42855 -5.52005 7.74359 4.63755 6.16087
0.00411 0.57954 0.00054 189.85796 0 -3.67861 7.0892 5.24944 -2.43785 -6.87061 -0.49599 -1.89442 9.29405 -9.54952 2.29388 7.78131 80.84434 -1.31959 -1.2717 10.84256 10.6053 0.02736 9.04817 -78.16552 -4.59458 2.19016 -5.93813 8.64559 3.42302 -2.75904 1.7061 -2.71426 -3.88668 -5.44861 -0.56054 -6.53407 -5.52176 7.70138 4.61917 6.11323
0.00455 0.57958 0.00062 189.99889 0 -3.68098 7.2741 5.2018 -2.52633 -7.48275 -0.22932 -1.84198 10.54254 -9.78912 3.79077 8.01727 80.90949 -1.34681 -1.48612 12.67578 10.35021 -1.76913 9.67498 -78.27799 -4.6597 2.59661 -5.88611 8.65091 3.32882 -2.79708 1.70207 -2.71679 -3.93825 -5.39916 -0.55538 -6.63122 -5.51737 7.65984 4.59878 6.05388
0.00501 0.57963 0.00071 190.12784 0 -3.68281 7.44329 5.1567 -2.60529 -8.07368 0.01999 -1.79606 11.70794 -10.00279 5.22018 8.26005 80.9643 -1.37153 -1.67506 14.37637 10.08837 -3.29462 10.26435 -78.3788 -4.73555 2.96948 -5.82685 8.65397 3.26458 -2.8437 1.69458 -2.72634 -4.00432 -5.34383 -0.55376 -6.73663 -5.52217 7.6164 4.58278 6.01425
0.00554 0.5797 0.00079 190.2313 0 -3.68167 7.5714 5.11769 -2.65447 -8.60962 0.21117 -1.77613 12.67197 -10.13508 6.44651 8.51752 81.01347 -1.38871 -1.78373 15.7552 9.82782 -4.21773 10.74303 -78.45929 -4.84007 3.26247 -5.74857 8.64896 3.23451 -2.91032 1.68186 -2.73422 -4.06785 -5.26852 -0.56287 -6.87839 -5.55633 7.56713 4.57861 6.03583
0.00609 0.57978 0.00086 190.32281 0 -3.67998 7.68332 5.08149 -2.69367 -9.12293 0.38277 -1.76393 13.54934 -10.23928 7.59462 8.77929 81.05382 -1.40313 -1.86533 16.9956 9.56396 -4.88216 11.17874 -78.53143 -4.95384 3.52084 -5.66337 8.64182 3.24003 -2.98497 1.66488 -2.75147 -4.15144 -5.18716 -0.57556 -7.02872 -5.60009 7.51624 4.57881 6.07746
0.00662 0.57985 0.00093 190.41843 0 -3.67887 7.80157 5.04462 -2.73796 -9.64417 0.56224 -1.74848 14.45469 -10.35514 8.76512 9.0358 81.09446 -1.41856 -1.9598 18.27994 9.30257 -5.65411 11.62689 -78.61136 -5.06091 3.79051 -5.58185 8.63662 3.26055 -3.05575 1.64631 -2.77795 -4.2561 -5.10913 -0.5865 -7.17225 -5.63936 7.46689 4.57707 6.10847
0.00718 0.57992 0.001 190.51961 0 -3.6764 7.9245 5.00494 -2.78074 -10.17695 0.74805 -1.73103 15.40983 -10.4774 9.99982 9.30844 81.14769 -1.43527 -2.0539 19.64637 9.03353 -6.453 12.10936 -78.67261 -5.17969 4.07904 -5.49788 8.62757 3.15859 -3.12801 1.64177 -2.75149 -4.2426 -5.02875 -0.59802 -7.32733 -5.67909 7.41411 4.57525 6.1453
0.0077 0.57999 0.00109 190.60575 0 -3.67671 8.03333 4.97205 -2.82362 -10.67842 0.91501 -1.71965 16.23751 -10.57896 11.07622 9.54697 81.17429 -1.4485 -2.14098 20.8048 8.78141 -7.13766 12.50702 -78.77085 -5.27541 4.31922 -5.41738 8.62577 3.30936 -3.1989 1.60814 -2.83275 -4.46845 -4.95204 -0.60902 -7.46015 -5.71977 7.36807 4.57451 6.1749
0.00815 0.58004 0.00122 190.66114 0 -3.68364 8.11155 4.95515 -2.87369 -11.11429 1.03771 -1.72646 16.76501 -10.6309 11.76655 9.69861 81.12327 -1.45359 -2.22233 21.46303 8.57194 -7.60068 12.69792 -78.98062 -5.31036 4.44352 -5.34892 8.64662 4.24172 -3.26384 1.48492 -3.24982 -5.45083 -4.88376 -0.61934 -7.53576 -5.76554 7.34158 4.57658 6.18072
0.00856 0.58009 0.00138 190.70056 0 -3.69357 8.17525 4.94537 -2.92338 -11.51621 1.14139 -1.73868 17.16122 -10.66278 12.29285 9.81378 81.04715 -1.4551 -2.29599 21.90879 8.38094 -7.95348 12.80102 -79.22664 -5.32071 4.51837 -5.28413 8.67449 5.41116 -3.32703 1.3343 -3.76786 -6.65607 -4.8199 -0.62872 -7.5878 -5.81112 7.32182 4.57942 6.17854
0.00899 0.58014 0.00152 190.74213 0 -3.70291 8.24284 4.93367 -2.97013 -11.92401 1.25145 -1.74637 17.59828 -10.70299 12.87342 9.94026 80.98718 -1.45772 -2.36844 22.4265 8.18519 -8.34083 12.93333 -79.45191 -5.33887 4.61048 -5.21712 8.6977 6.40963 -3.39118 1.20324 -4.21233 -7.69148 -4.75607 -0.63742 -7.64649 -5.85365 7.2987 4.58128 6.17932
0.00942 0.58018 0.00168 190.80443 0 -3.70903 8.32159 4.91651 -3.02934 -12.37268 1.37004 -1.76292 18.11371 -10.74497 13.53978 10.09008 80.90739 -1.46249 -2.46009 23.04596 7.97404 -8.78907 13.11091 -79.69589 -5.37165 4.72497 -5.152 8.72685 7.67079 -3.45519 1.04286 -4.7719 -9.01098 -4.6835 -0.65083 -7.7221 -5.90963 7.27692 4.58587 6.18337
0.00983 0.58023 0.00181 190.82044 0 -3.72252 8.37347 4.91238 -3.06309 -12.72676 1.46705 -1.76236 18.43339 -10.7796 13.98596 10.18139 80.86232 -1.46188 -2.50994 23.40142 7.79922 -9.08191 13.17192 -79.9084 -5.36792 4.77954 -5.08416 8.74555 8.44753 -3.51862 0.93606 -5.11821 -9.79899 -4.63017 -0.65425 -7.75739 -5.93758 7.25383 4.58501 6.17881
0.01019 0.58029 0.0019 190.70805 0 -3.75604 8.35784 4.94242 -3.02265 -12.84154 1.50494 -1.7118 18.26498 -10.79252 13.89372 10.13005 80.92587 -1.44823 -2.44881 23.10854 7.72217 -9.02282 12.94962 -80.03532 -5.27044 4.69824 -5.0057 8.73176 7.76869 -3.58397 0.993 -4.82808 -8.99908 -4.62971 -0.62976 -7.68143 -5.88696 7.22666 4.56797 6.1492
0.01054 0.58035 0.00196 190.55045 0 -3.79677 8.31501 4.98534 -2.95727 -12.85919 1.5225 -1.64404 17.90009 -10.79996 13.58006 10.01917 81.02406 -1.42921 -2.34535 22.552 7.68087 -8.80209 12.61035 -80.12716 -5.13711 4.55529 -4.92472 8.70756 6.60495 -3.64828 1.10319 -4.324 -7.66846 -4.64829 -0.59537 -7.56653 -5.80839 7.19771 4.54556 6.1116
0.01089 0.5804 0.00204 190.41668 0 -3.83395 8.28283 5.02238 -2.90609 -12.9134 1.55236 -1.58506 17.61309 -10.81435 13.34932 9.92898 81.10212 -1.41195 -2.25995 22.09895 7.62172 -8.6251 12.31323 -80.22877 -5.01906 4.42925 -4.84648 8.68944 5.70258 -3.71089 1.18298 -3.93288 -6.62422 -4.65776 -0.56583 -7.47339 -5.74328 7.16877 4.52627 6.07981
0.01124 0.58046 0.00211 190.26885 0 -3.87245 8.25798 5.05975 -2.84327 -13.00125 1.56917 -1.52224 17.37225 -10.80963 13.18911 9.86445 81.19779 -1.39712 -2.17997 21.7101 7.56927 -8.57379 12.05824 -80.35887 -4.90323 4.34825 -4.76201 8.66599 4.63625 -3.78223 1.28774 -3.47913 -5.39825 -4.66958 -0.53466 -7.3631 -5.67468 7.1434 4.50424 6.03898
0.01158 0.58052 0.00218 190.13935 0 -3.90979 8.2108 5.09942 -2.79817 -12.99284 1.60787 -1.46324 16.98701 -10.84314 12.82963 9.73276 81.26535 -1.37642 -2.07781 21.12425 7.512 -8.21849 11.69042 -80.41935 -4.7761 4.15958 -4.68942 8.65094 3.79213 -3.83566 1.35381 -3.10339 -4.42025 -4.68063 -0.50466 -7.27857 -5.60706 7.11012 4.48648 6.01466
0.01189 0.58062 0.00227 190.07551 0 -3.9428 8.11562 5.14205 -2.81333 -12.77303 1.71809 -1.4193 16.27983 -10.98789 11.9926 9.43114 81.24695 -1.33716 -1.9333 20.08965 7.42521 -7.11228 11.02734 -80.30886 -4.61341 3.68796 -4.65422 8.6628 3.68798 -3.83541 1.2975 -2.99762 -4.26982 -4.68759 -0.47942 -7.28381 -5.54599 7.05505 4.48315 6.04247
0.0122 0.58072 0.00235 190.03121 0 -3.97424 7.99768 5.18655 -2.84619 -12.45408 1.84983 -1.37984 15.4294 -11.1704 10.96106 9.06428 81.19917 -1.29291 -1.76659 18.86139 7.33376 -5.69925 10.25785 -80.12709 -4.44314 3.11077 -4.63032 8.68322 3.82157 -3.81802 1.20103 -2.97682 -4.38393 -4.69256 -0.45589 -7.31502 -5.48747 6.99207 4.48405 6.08647
0.01252 0.58082 0.00243 189.97521 0 -4.00594 7.88562 5.23032 -2.86754 -12.16068 1.968 -1.33791 14.62643 -11.33311 10.00595 8.72647 81.16486 -1.25333 -1.60424 17.7026 7.24906 -4.3925 9.54515 -79.96929 -4.28506 2.58226 -4.5986 8.69891 3.83997 -3.8114 1.12478 -2.91516 -4.367 -4.69668 -0.43216 -7.32815 -5.42972 6.93295 4.48213 6.11994
0.0128 0.58091 0.00253 189.92878 0 -4.03984 7.79141 5.27404 -2.90274 -11.9465 2.10212 -1.29666 13.89109 -11.50753 9.08936 8.38787 81.13117 -1.2033 -1.46375 16.6122 7.14549 -3.2114 8.79126 -79.84535 -4.08882 2.04742 -4.57807 8.71777 3.87162 -3.79209 1.04209 -2.85558 -4.37648 -4.70898 -0.40555 -7.36528 -5.36274 6.87281 4.48383 6.16601
0.01316 0.58102 0.0026 189.86861 0 -4.06865 7.65503 5.31815 -2.91349 -11.54471 2.20754 -1.25601 12.98333 -11.66561 8.05449 8.0377 81.08884 -1.17409 -1.27405 15.3375 7.08036 -1.70865 8.10129 -79.63503 -3.97068 1.50299 -4.53701 8.73222 3.93861 -3.79522 0.96252 -2.81463 -4.40176 -4.70341 -0.38557 -7.36049 -5.31609 6.81275 4.47907 6.19039
0.01374 0.58115 0.00259 189.75755 0 -4.08412 7.40757 5.36273 -2.85348 -10.6525 2.23604 -1.20956 11.63701 -11.77806 6.69937 7.65913 81.02921 -1.20188 -0.94541 13.59766 7.11625 0.69766 7.59855 -79.19864 -4.07052 0.9459 -4.43568 8.73248 4.04813 -3.8643 0.90186 -2.80551 -4.40142 -4.64981 -0.38279 -7.22191 -5.32389 6.75637 4.45545 6.1457
